<?xml version="1.0" encoding="UTF-8"?>
<svg width="374px" height="249px" viewBox="0 0 374 249" version="1.1" xmlns="http://www.w3.org/2000/svg" xmlns:xlink="http://www.w3.org/1999/xlink">
    <!-- Generator: Sketch 46.2 (44496) - http://www.bohemiancoding.com/sketch -->
    <title>Page 1</title>
    <desc>Created with Sketch.</desc>
    <defs>
        <polygon id="path-1" points="4.8612 7.34651429 4.8612 0.763657143 0.47076 0.763657143 0.47076 7.34651429 4.8612 7.34651429"></polygon>
        <polygon id="path-3" points="4.8612 7.03348571 4.8612 0.918310048 0.576970534 0.918310048 0.576970534 7.03348571 4.8612 7.03348571"></polygon>
        <polygon id="path-5" points="2.73466667 7.30742857 2.73466667 0.158490192 0.495515006 0.158490192 0.495515006 7.30742857 2.73466667 7.30742857"></polygon>
    </defs>
    <g id="Page-1" stroke="none" stroke-width="1" fill="none" fill-rule="evenodd" opacity="0.06">
        <g id="Category-Page" transform="translate(0.000000, -128.000000)">
            <g id="Group" transform="translate(0.000000, 128.000000)">
                <g id="Page-1" transform="translate(-329.000000, -129.000000)">
                    <g id="Group-33" transform="translate(698.000000, 141.000000)">
                        <mask id="mask-2" fill="white">
                            <use xlink:href="#path-1"></use>
                        </mask>
                        <g id="Clip-32"></g>
                        <path d="M4.86156,7.34651429 C3.97596,7.23337143 3.08796,7.12137143 2.00676,6.98308571 C1.59156,6.55451429 1.05636,6.00022857 0.47076,5.39451429 C0.88236,4.01622857 1.28076,2.68365714 1.71396,1.2288 C2.78796,1.06994286 3.82476,0.9168 4.86156,0.763657143 L4.86156,7.34651429 Z" id="Fill-31" fill="#231F20" mask="url(#mask-2)"></path>
                    </g>
                    <g id="Group-36" transform="translate(698.000000, 371.000000)">
                        <mask id="mask-4" fill="white">
                            <use xlink:href="#path-3"></use>
                        </mask>
                        <g id="Clip-35"></g>
                        <path d="M4.86156,7.03348571 L1.99356,7.03348571 C1.49556,6.49291429 1.07196,6.03348571 0.66396,5.5912 C0.63156,5.41062857 0.54996,5.24605714 0.58596,5.11005714 C0.86316,4.05634286 1.16316,3.00834286 1.45596,1.9592 C1.62276,1.36148571 2.07036,1.02091429 2.67396,0.962628571 C3.39636,0.891771429 4.13196,0.929485714 4.86156,0.920342857 L4.86156,7.03348571 Z" id="Fill-34" fill="#231F20" mask="url(#mask-4)"></path>
                    </g>
                    <g id="Group-51" transform="translate(700.000000, 278.000000)">
                        <mask id="mask-6" fill="white">
                            <use xlink:href="#path-5"></use>
                        </mask>
                        <g id="Clip-50"></g>
                        <path d="M2.73506667,7.30742857 C2.12173333,7.19771429 1.5084,7.08914286 0.737733333,6.95085714 C0.321733333,4.79657143 0.549733333,2.66285714 0.633733333,0.530285714 C1.32973333,0.0354285714 2.03106667,0.138285714 2.73506667,0.254857143 L2.73506667,7.30742857 Z" id="Fill-49" fill="#231F20" mask="url(#mask-6)"></path>
                    </g>
                    <path d="M473.16793,132.516423 C475.27406,131.68047 477.366936,132.042283 479.512827,132.336699 C479.921281,133.949486 479.559817,135.478324 479.605603,136.995337 C479.648978,138.435495 478.462172,139.732583 479.117626,141.299256 C480.593604,141.904643 482.216577,141.504993 483.721472,141.852618 C485.152869,142.184871 486.54812,142.66847 488,143.096498 L488,147.05634 C487.902405,147.184039 487.813244,147.311737 487.712034,147.428794 C486.650535,148.663215 485.373362,148.983644 483.757618,148.579265 C482.73588,148.32505 481.626186,148.367616 480.555048,148.362887 C480.004418,148.360522 479.452583,148.548523 478.836889,148.662033 C478.747728,149.220123 478.644109,149.683622 478.604348,150.150669 C478.503138,151.361442 478.463377,152.575762 478.335659,153.782987 C478.211557,154.97366 477.304282,156.130042 475.895778,155.988155 C474.841508,155.882922 473.76796,155.966872 472.751042,155.966872 C472.143782,155.128553 472.081129,154.356449 472.126914,153.538232 C472.202821,152.164288 472.276319,150.789162 472.278729,149.414036 C472.281139,148.37944 471.860636,147.906482 470.805161,147.837903 C469.080978,147.726758 467.350771,147.717299 465.60249,147.665273 C465.089211,147.103636 464.60244,146.571558 464,145.914146 C464.375922,144.586316 464.769918,143.197001 465.149455,141.864442 C466.436267,141.010752 467.815854,141.501446 469.088207,141.283885 C469.402681,141.230678 469.741252,141.334728 470.070184,141.341823 C471.86184,141.386754 472.31608,141.023758 472.355841,139.318744 C472.408856,137.13013 472.575129,134.961617 473.16793,132.516423" id="Fill-57" fill="#231F20"></path>
                    <path d="M477.022805,387 L472.579095,387 C472.140003,386.179674 472.045226,385.412925 472.101613,384.580693 C472.198789,383.201974 472.246777,381.816111 472.237179,380.43263 C472.228781,379.433713 471.734503,378.896751 470.737547,378.862224 C469.017169,378.801503 467.295592,378.844365 465.628001,378.844365 C465.050942,378.181198 464.577058,377.637092 464,376.972736 C464.315523,375.847615 464.65024,374.684395 464.968162,373.515222 C465.166114,372.786573 465.680788,372.415105 466.387414,372.365099 C467.609914,372.279376 468.839613,372.237705 470.066912,372.230561 C470.723151,372.22818 471.37939,372.331762 472.120808,371.737651 C472.179593,371.270934 472.269571,370.647058 472.334355,370.020801 C472.523909,368.161078 472.696667,366.300164 472.888619,364.441632 C472.965401,363.707029 473.404493,363.178401 474.118318,363.114108 C475.898681,362.952186 477.687442,362.918849 479.512195,363.309368 C479.719744,365.576277 479.796525,367.690789 479.196672,369.732674 C478.534434,371.990059 478.731186,372.76157 481.279361,372.765142 C483.507215,372.769905 485.64629,373.218762 487.821356,374.252206 C488.200463,375.458288 487.842951,376.833435 487.940127,378.26335 C487.68219,378.451465 487.369067,378.591957 487.187912,378.831268 C486.507679,379.728983 485.599501,379.814707 484.568954,379.734936 C483.098115,379.620638 481.621277,379.582539 480.145639,379.54444 C479.750936,379.533724 479.352634,379.64326 478.83796,379.714696 C478.732386,380.220703 478.59202,380.671941 478.550031,381.132705 C478.446856,382.268541 478.368875,383.405567 478.322087,384.544975 C478.283696,385.503411 477.897391,386.268969 477.022805,387" id="Fill-63" fill="#231F20"></path>
                    <path d="M378.69898,204.102387 C379.699664,204.666861 380.622264,204.4811 381.507624,204.537428 C382.736556,204.615328 383.9775,204.591359 385.196822,204.735174 C386.43176,204.880187 386.943515,205.463836 386.98556,206.685066 C387.028807,207.899104 386.962736,209.119135 386.945917,210.257671 C385.975265,210.877274 385.079094,210.823343 384.175715,210.796977 C382.696913,210.753833 381.216909,210.710688 379.736905,210.733459 C378.29294,210.755031 377.617808,211.383023 377.510892,212.784022 C377.423197,213.927351 377.436412,215.07907 377.383554,216.225995 C377.361931,216.713767 377.311476,217.203937 377.228586,217.684519 C377.101248,218.426365 376.601507,218.849421 375.88433,218.91174 C374.985756,218.990839 374.075169,219.029189 373.177796,218.97406 C372.253995,218.916534 371.832338,218.130345 371.349415,217.510742 C371.053895,215.300785 371.505584,213.084835 371.116362,210.775405 C370.206977,210.728665 369.405708,210.683124 368.603239,210.64717 C367.78275,210.611216 366.955053,210.641178 366.141771,210.540507 C364.927255,210.391898 364.062318,209.441521 364.019071,208.24426 C363.986636,207.344218 363.992642,206.436985 364.059915,205.539339 C364.158422,204.270172 364.988521,203.471998 366.308752,203.414472 C367.703464,203.354549 369.104182,203.425258 370.498893,203.371328 C371.757858,203.323389 372.044969,203.034561 372.150683,201.728241 C372.275619,200.175039 372.335684,198.618241 372.417372,197.061443 C372.443801,196.571274 372.410164,196.073913 372.471431,195.588538 C372.607178,194.54468 373.02403,194.115632 374.053545,194.049717 C374.954522,193.990992 375.863907,193.979008 376.763683,194.042526 C378.076705,194.136006 378.632908,194.740029 378.64372,196.131439 C378.659337,198.099308 378.581252,200.067177 378.574044,202.035046 C378.572843,202.754122 378.659337,203.474395 378.69898,204.102387" id="Fill-67" fill="#231F20"></path>
                    <path d="M621.809221,210.349898 C620.88616,210.861162 619.989439,210.807156 619.09152,210.784353 C617.615342,210.747148 616.137967,210.699142 614.660591,210.723145 C613.257444,210.744748 612.546292,211.421634 612.443331,212.803009 C612.36192,213.868744 612.375089,214.94168 612.339172,216.009815 C612.322411,216.501878 612.321214,216.999941 612.249381,217.484802 C612.116489,218.370515 611.687882,218.830173 610.830669,218.924985 C610.100362,219.005395 609.356885,219.010196 608.619395,218.989793 C607.255756,218.951388 606.342273,218.064476 606.30037,216.685501 C606.259665,215.370134 606.314737,214.052367 606.306357,212.737 C606.302765,212.169328 606.24889,211.602857 606.210579,210.901968 C605.711336,210.811956 605.255193,210.68114 604.793064,210.658337 C603.727534,210.60553 602.657215,210.645135 601.59408,210.574326 C599.927543,210.462712 599.049977,209.550596 599.011666,207.944793 C598.993707,207.205499 598.99251,206.462605 599.036808,205.724511 C599.118219,204.333535 599.967051,203.465825 601.366607,203.392615 C602.43094,203.337408 603.501259,203.396216 604.567986,203.366212 C605.289913,203.34701 606.011839,203.261799 606.806797,203.199391 C606.954055,202.606516 607.138428,202.151658 607.168358,201.687199 C607.270123,200.045391 607.319209,198.399982 607.393437,196.756974 C607.416184,196.264912 607.380267,195.757247 607.496398,195.286788 C607.661615,194.617103 608.059094,194.069833 608.830106,194.04343 C609.894439,194.006225 610.964758,193.96902 612.024302,194.04103 C612.950954,194.104638 613.519636,194.711915 613.619006,195.626431 C613.680064,196.196503 613.639358,196.776176 613.632175,197.352249 C613.611822,198.997658 613.565131,200.643067 613.571117,202.287275 C613.573511,202.925756 613.68605,203.564237 613.76387,204.363539 C615.004195,204.425946 616.135572,204.475153 617.264555,204.542361 C618.328888,204.605969 619.400404,204.621571 620.45037,204.779991 C621.390192,204.922809 621.899012,205.507284 621.940915,206.473406 C621.997185,207.76957 622.084582,209.080137 621.809221,210.349898" id="Fill-81" fill="#231F20"></path>
                    <path d="M349.574584,294.934052 C350.258054,296.851637 349.958663,298.614713 349.765431,300.499959 C348.361515,300.999417 346.976684,300.752682 345.622866,300.777835 C344.323916,300.80179 343.024966,300.782626 341.807126,300.782626 C340.793253,301.811486 340.442573,302.954132 340.388897,304.216552 C340.350728,305.117254 340.334029,306.019154 340.268425,306.91746 C340.182544,308.097236 339.636245,308.750005 338.499515,308.888943 C337.697959,308.988356 336.829607,309.084175 336.07457,308.876966 C335.432848,308.700898 334.90802,308.09005 334.29254,307.643292 C334.29254,306.462318 334.306853,305.32087 334.288961,304.179422 C334.272262,303.133793 334.520363,302.067803 334.105271,300.896411 C333.632926,300.832931 333.162966,300.692795 332.704934,300.722739 C330.699852,300.855688 328.871302,300.365812 327.017704,299.142917 C327.015319,298.129627 326.978342,296.995366 327.018897,295.862302 C327.07138,294.419023 328.035155,293.488377 329.505867,293.440468 C330.565066,293.405733 331.627843,293.448852 332.688235,293.424897 C333.409874,293.408129 334.132706,293.333869 334.961696,293.277575 C335.079782,292.629596 335.244387,292.089415 335.264665,291.544442 C335.323111,289.989773 335.31834,288.431511 335.344582,286.875644 C335.352931,286.38457 335.339811,285.887507 335.411378,285.404817 C335.534236,284.583166 336.042365,284.063346 336.88209,284.029809 C338.257379,283.973515 339.635053,284.014239 340.866014,284.014239 C341.760607,284.937698 341.867958,285.851575 341.776113,286.887621 C341.632978,288.517748 341.580496,290.157457 341.553061,291.79477 C341.539941,292.594862 341.669955,293.398547 341.74033,294.264514 C344.343001,295.059815 346.91943,294.456153 349.574584,294.934052" id="Fill-87" fill="#231F20"></path>
                    <path d="M480.532916,226.954659 C479.838475,224.989903 480.088571,223.294795 480.201478,221.647489 C480.395727,218.790442 479.963523,218.259725 477.051001,218.33204 C475.811448,218.362682 474.569468,218.27811 473.380907,218.246243 C472.883143,217.676304 472.459437,217.189711 472.018735,216.685959 C472.018735,216.451855 471.971387,216.193238 472.027233,215.959134 C472.260332,214.987175 472.54685,214.028697 472.77145,213.055512 C473.084677,211.703593 473.428255,211.360404 474.775858,211.315054 C476.019052,211.272156 477.267103,211.301572 478.511511,211.261125 C478.991063,211.246417 479.469402,211.125075 479.897964,211.060114 C480.50135,210.132279 480.298603,209.17993 480.347165,208.281511 C480.433363,206.688134 480.518347,205.103337 480.988187,203.565116 C481.341477,202.403177 481.584289,202.105338 482.672084,202.075922 C484.303776,202.033023 485.991315,201.718025 487.59387,202.79049 C487.782049,205.00038 487.500388,207.229882 487.181091,209.455707 C487.133743,209.78051 486.935851,210.085703 486.898216,210.410507 C486.795021,211.306475 487.397193,212.045556 488.298023,212.11542 C489.12601,212.180381 489.960067,212.230633 490.78684,212.199991 C492.668628,212.130128 494.404729,212.503959 496,213.832589 L496,215.666198 L496,217.763327 C495.601789,218.048909 495.170799,218.285464 494.829649,218.618848 C494.218979,219.216977 493.513612,219.237813 492.747542,219.134857 C491.599044,218.980422 490.449332,218.829664 489.295978,218.718127 C488.804285,218.670326 488.298023,218.67768 487.807544,218.742641 C486.943136,218.860305 486.462369,219.34935 486.412593,220.237963 C486.331251,221.659746 486.348248,223.08643 486.280261,224.509438 C486.204989,226.134683 485.398855,226.949756 483.819368,226.991429 C482.752212,227.019619 481.682627,226.970592 480.532916,226.954659" id="Fill-101" fill="#231F20"></path>
                    <path d="M583.486298,294.863712 C584.321777,296.853334 583.935069,298.688528 583.728587,300.584774 C580.996569,301.109115 578.380324,300.588365 575.728273,300.860113 C574.870116,301.763943 574.380764,302.812624 574.405829,304.118688 C574.423732,305.100331 574.330635,306.081974 574.303184,307.064813 C574.286474,307.68253 574.033443,308.148212 573.533349,308.515729 C572.737257,309.102321 571.819423,308.940709 570.935008,308.992185 C570.263044,309.030493 569.653143,308.946694 569.21392,308.314612 C569.04205,308.069202 568.700697,307.942306 568.312796,307.677742 L568.312796,301.045667 C567.738702,300.923561 567.28993,300.776314 566.832803,300.741597 C565.856486,300.667376 564.841975,300.795468 563.908625,300.568014 C562.989597,300.344152 562.152924,299.783897 561.144381,299.308638 C560.914027,298.09595 561.014285,296.789887 561.072769,295.499386 C561.119317,294.477041 562.130247,293.52772 563.17579,293.475047 C564.315623,293.417585 565.461423,293.463075 566.603643,293.44871 C567.408091,293.439133 568.237602,293.555254 569.11605,293.002182 C569.179307,292.453899 569.298661,291.823014 569.316565,291.189734 C569.361919,289.470662 569.333274,287.749196 569.392951,286.031321 C569.447854,284.452313 569.893045,284.047685 571.509102,284.012968 C572.647741,283.987828 573.787574,284.006982 574.808052,284.006982 C575.758112,284.94074 575.912079,285.896046 575.802273,287.030921 C575.619661,288.902028 575.540887,290.788697 575.542081,292.668184 C575.542081,294.169379 575.927595,294.522531 577.437426,294.637455 C578.656032,294.728437 579.882994,294.715269 581.107568,294.758365 C581.914403,294.785899 582.71885,294.828995 583.486298,294.863712" id="Fill-113" fill="#231F20"></path>
                    <path d="M435.82519,316.728298 C437.000864,317.89897 437.276375,319.005527 436.73129,320.423155 C436.391651,321.305314 436.429653,322.33351 436.308523,323.220418 C435.240916,324.211807 434.088993,324.567995 432.710248,324.52644 C431.607014,324.494383 430.430153,324.309165 429.379171,324.907561 C428.92434,326.784672 429.490801,328.679592 429.021719,330.616067 C426.728561,331.150349 424.529219,331.165784 422.287126,330.415414 C421.937986,328.880244 422.125619,327.428185 422.176684,325.979687 C422.211123,324.971675 422.012802,324.700972 421.012885,324.468263 C419.44057,324.102576 417.861129,323.770134 416.291188,323.425819 C415.931361,322.48667 415.869608,321.490531 416.307814,320.762721 C417.04647,319.536247 417.05122,318.117431 417.630744,316.855339 C419.204247,316.063414 421.066325,317.102296 422.733644,315.998113 C422.757395,315.541005 422.822711,314.991289 422.810835,314.443946 C422.790647,313.551102 422.690893,312.660632 422.679017,311.767788 C422.655266,310.107952 422.671892,310.106764 423.59343,308.19166 C424.699039,307.941142 425.913902,307.992195 427.112139,308.037312 C428.385192,308.085991 429.146412,308.91116 429.211727,310.248052 C429.263979,311.302369 429.227165,312.361434 429.228353,313.418125 C429.22954,314.307408 429.228353,315.19669 429.228353,316.18808 C429.778188,316.331743 430.219956,316.526459 430.670038,316.550204 C432.372984,316.639251 434.078305,316.672496 435.82519,316.728298" id="Fill-133" fill="#231F20"></path>
                    <path d="M656.142033,330.224458 C656.142033,328.896414 656.133728,327.520813 656.144405,326.144023 C656.15271,324.907527 656.02933,324.707786 654.915352,324.453353 C653.415812,324.108561 651.912712,323.789926 650.364532,323.451078 C649.903043,322.713937 649.906602,321.821044 650.224543,321.133838 C650.869915,319.735647 651.052612,318.200728 651.609008,316.852472 C653.267518,316.066584 655.127708,317.11285 656.734019,315.973847 C656.997388,314.906181 656.741137,313.780256 656.722156,312.659088 C656.697242,311.13368 656.471837,309.559527 657.748344,308.068598 C658.692675,308.047197 659.81733,307.974672 660.93724,308.009151 C662.348991,308.054331 663.15096,308.87232 663.216209,310.314502 C663.267222,311.451127 663.229259,312.592507 663.229259,313.732699 C663.230445,314.538799 663.230445,315.344899 663.230445,316.258003 C665.427556,316.813237 667.538064,316.561182 669.72094,316.713367 C670.818309,317.628849 671.342673,318.707216 670.757805,320.270669 C670.423256,321.167128 670.407833,322.182481 670.253609,323.119364 C669.299787,324.35586 668.003112,324.538956 666.580684,324.525878 C665.548564,324.516367 664.471362,324.365372 663.419074,324.856403 C662.910132,326.696879 663.455851,328.590857 663.08927,330.377831 C660.786574,331.252889 658.419815,331.20771 656.142033,330.224458" id="Fill-137" fill="#231F20"></path>
                    <path d="M529.078246,169.624922 C531.04909,169.127471 532.887728,168.66172 534.761866,168.188654 C535.350671,167.48759 535.088708,166.617051 535.145018,165.808693 C535.185414,165.227114 535.207449,164.632124 535.135225,164.056641 C534.958951,162.636224 535.537963,161.651076 536.748624,161 L542.160488,161 C542.308608,161.598648 542.533847,162.136334 542.559554,162.682555 C542.608519,163.764023 542.539968,164.851587 542.533847,165.937932 C542.530175,166.598762 542.453055,167.282757 543.039411,167.902132 C544.748292,168.269124 546.653034,167.485151 548.536965,168.473957 C548.982547,170.310136 549.275113,172.23654 548.605516,174.31291 C546.736274,174.79451 544.891515,175.268796 542.879051,175.786974 C542.176402,177.920648 542.96474,180.293294 542.467744,182.540358 C540.962068,184.402142 538.843105,183.926637 536.897968,183.987599 C536.09494,184.013204 535.333534,183.185338 535.212345,182.367226 C535.126656,181.792963 535.154811,181.20163 535.145018,180.617613 C535.125432,179.456894 535.115639,178.297394 535.103398,177.270792 C534.338319,176.518519 533.557326,176.736764 532.827746,176.736764 C532.241389,176.736764 531.652585,176.831865 531.068676,176.800164 C530.04653,176.745299 529.096608,175.925968 529.052539,174.910338 C528.98154,173.171699 528.975419,171.424524 529.078246,169.624922" id="Fill-145" fill="#231F20"></path>
                    <path d="M587.682162,373 C587.06678,372.628304 586.513293,372.293409 586.001466,371.985502 C585.393225,369.761458 586.527576,367.395115 585.318237,365.331771 C584.060095,364.979702 582.976927,365.350172 581.81758,365.739042 C581.243858,365.38452 580.636808,365.01037 580,364.616593 L580,359.182222 C580.80821,358.024198 581.966367,357.46236 583.469709,357.534736 C584.175554,357.567858 584.88616,357.440279 585.701512,357.376489 C585.921716,355.828368 585.889578,354.41028 585.864582,353.000778 C585.849108,352.096685 586.120495,351.356973 586.747781,350.7706 C587.02869,350.506855 587.401252,350.203856 587.750009,350.180548 C589.362858,350.07137 590.98642,349.83952 592.633788,350.173188 C593.534841,352.192369 592.504046,354.400466 593.349155,356.428235 C594.439465,356.639231 595.492876,356.569307 596.532003,356.490797 C597.658022,356.4037 598.41862,356.983939 598.989962,357.835283 C599.746989,358.961412 600.094555,360.240882 599.977906,361.630756 C599.902918,362.537302 598.86022,363.672018 597.938932,363.784877 C597.375922,363.8548 596.80101,363.844986 596.233239,363.886694 C594.78346,363.993419 594.78346,363.995873 593.152757,365.276569 C592.864705,367.456451 593.470565,369.738151 592.92541,371.980595 C591.248285,373.034348 589.32953,372.265195 587.682162,373" id="Fill-147" fill="#231F20"></path>
                    <path d="M359.375113,356.496274 C360.32937,356.507312 361.245408,356.679022 362.087399,356.4975 C364.098622,356.062094 365.347874,357.752205 365.909201,359.878949 C366.094319,360.580504 365.939059,361.3765 365.939059,362.165137 C365.312044,363.511829 364.195361,363.949688 362.772934,363.884684 C361.429332,363.824586 360.158583,364.060073 359.242545,365.27921 C358.899777,367.47709 359.584118,369.764504 358.952327,372.011444 C357.287454,373.018397 355.363415,372.280047 353.705709,373 C353.08586,372.625919 352.528116,372.287406 351.997841,371.968517 C351.516533,369.791487 352.3215,367.556812 351.498618,365.387141 C350.249366,364.94315 349.0873,365.319684 347.826105,365.704804 C347.267166,365.379782 346.648512,365.019192 346,364.641432 L346,359.185979 C346.809744,358.034299 347.971811,357.471338 349.482617,357.541248 C350.192039,357.573137 350.906239,357.445581 351.738675,357.381804 C351.934542,355.838872 351.914239,354.41859 351.877215,353.00812 C351.852135,352.100513 352.144741,351.38056 352.753841,350.774671 C352.979566,350.550223 353.257841,350.237466 353.525367,350.223975 C355.291757,350.133214 357.080838,349.70394 358.883056,350.349077 C359.412137,352.366663 358.760042,354.427175 359.375113,356.496274" id="Fill-153" fill="#231F20"></path>
                    <path d="M359.18545,133.57367 C358.93381,135.850606 359.521765,138.044829 358.883721,140.335943 C357.104353,140.554538 355.363148,140.767226 353.465713,141 C353.085271,140.775497 352.53548,140.449376 351.996422,140.130345 C351.423971,138.02356 352.415027,135.771439 351.40489,133.694193 C350.095408,133.343259 348.936196,134.030948 347.635063,133.954144 C347.155635,133.665835 346.605844,133.332625 346,132.967512 L346,127.828752 C346.746571,126.577442 348.015504,126.240687 349.470483,126.233597 C350.184854,126.230053 350.899225,126.120164 351.63387,126.05754 C351.961837,124.714065 351.891473,123.501748 351.850924,122.308336 C351.810376,121.107835 352.008348,120.059759 353.24031,119.203102 C354.950507,118.984507 356.868217,118.898251 358.824091,119.170018 C359.360763,121.148009 358.813357,123.035017 359.210495,124.916118 C360.034586,125.412388 360.948122,125.120534 361.805605,125.124079 C362.799046,125.128805 363.778175,125.047275 364.509243,125.892116 C365.254621,126.753499 365.904592,127.660965 365.930829,128.862648 C365.942755,129.347102 365.973763,129.831557 366,130.414083 C365.621944,130.935167 365.204532,131.509423 364.746571,132.139213 C364.021467,132.184114 363.2904,132.292821 362.566488,132.260917 C361.278473,132.205382 360.178891,132.562224 359.18545,133.57367" id="Fill-179" fill="#231F20"></path>
                    <path d="M592.86318,140.368873 C590.993926,140.587522 589.3141,140.782533 587.448421,141 C587.095777,140.795534 586.542983,140.474061 586.016399,140.167952 C585.368296,138.048831 586.484606,135.771336 585.320641,133.65576 C584.132849,133.427656 583.048706,133.951232 581.750117,134.004417 C581.267614,133.719582 580.652869,133.359107 580,132.974994 L580,127.824335 C580.812512,126.582173 582.07536,126.231153 583.535975,126.240608 C584.251986,126.245335 585.020417,126.381252 585.817441,125.699304 C585.835311,124.64388 585.923472,123.435992 585.854373,122.235196 C585.786465,121.007217 586.136727,120.023887 587.219679,119.183567 C588.968604,119.070105 590.823561,118.820728 592.708302,119.21075 C593.45648,121.101767 592.59274,123.114519 593.320664,125.126089 C594.264226,125.130817 595.230424,125.210003 596.181134,125.126089 C597.595286,125.001991 598.449496,125.688667 599.186951,126.77482 C599.917259,127.851518 600.118599,129.045223 599.937512,130.238928 C599.838628,130.88542 599.240563,131.457453 598.818819,132.142946 C597.994394,132.192586 597.185456,132.311956 596.383667,132.272954 C595.063633,132.210314 594.027145,132.69016 593.157447,133.588393 C592.900112,135.807975 593.470777,138.007465 592.86318,140.368873" id="Fill-181" fill="#231F20"></path>
                    <path d="M610.557267,243.288891 C612.462823,242.797227 614.222441,243.035934 615.915072,243.253263 C616.562219,243.814996 616.459345,244.500238 616.46413,245.129663 C616.480877,246.998937 616.447383,248.868211 616.461738,250.737485 C616.46413,251.286153 616.564611,251.832447 616.629206,252.465435 C619.294352,252.976101 621.926004,252.505813 624.554068,252.888219 C625.281361,254.759868 624.955993,256.568574 624.713163,258.532856 C622.687987,258.84163 620.730995,258.877258 618.794338,258.81194 C617.439037,258.765624 616.411497,259.126653 615.574153,260.22399 C615.259551,262.328408 615.698558,264.539709 615.163855,266.772387 C613.74037,267.120352 612.353968,266.980216 610.989097,266.925587 C609.828778,266.878083 609.23546,266.227281 609.20077,265.01356 C609.16608,263.715519 609.211536,262.412727 609.292878,261.115874 C609.341922,260.353438 609.243833,259.663446 608.70913,258.891509 C606.705485,258.854694 604.60136,258.816691 602.401538,258.776313 C601.772334,256.76809 602.017556,254.88694 602.234069,252.995102 C603.220939,252.553317 604.127663,252.669701 605.010462,252.654262 C606.156427,252.634073 607.304784,252.688703 608.449553,252.635261 C609.791696,252.571131 610.223526,252.170911 610.29171,250.86812 C610.381425,249.163922 610.374248,247.456161 610.424488,245.749587 C610.447216,244.955087 610.509419,244.160586 610.557267,243.288891" id="Fill-203" fill="#231F20"></path>
                    <path d="M479.895655,275.971183 L484.177245,275.971183 C485.690962,276.845313 486.083844,277.998678 485.985919,279.438564 C485.90687,280.587073 485.918668,281.742867 485.887993,283.010355 C485.237909,283.164541 484.716425,283.363649 484.184324,283.398857 C482.982081,283.477771 481.776298,283.476557 480.709735,283.505695 C479.980602,284.096946 480.034874,284.790179 480.031335,285.442134 C480.023076,286.770326 480.085607,288.098517 480.06555,289.426708 C480.038414,291.131261 479.377711,291.873057 477.742472,291.911907 C476.227575,291.948329 474.69734,292.126798 473.123452,291.839063 C472.394319,289.617317 473.189522,287.325155 472.644442,285.218746 C471.676985,284.5158 470.695369,284.713693 469.745609,284.742831 C468.861919,284.770754 467.96997,284.903088 467.023749,284.211069 C467.032008,282.101017 466.914026,279.885341 467.138193,277.589537 C468.120988,277.124549 469.091985,277.289662 470.033486,277.248384 C470.906558,277.209534 471.818564,277.383145 472.743548,276.623138 C472.79428,274.618711 472.849732,272.480735 472.906364,270.330619 C473.849045,269.71023 474.825941,269.740582 475.773342,269.790359 C476.698326,269.838922 477.48527,269.513551 478.168389,269 C478.831452,269.532976 479.38715,269.980968 479.895655,270.390109 L479.895655,275.971183 Z" id="Fill-211" fill="#231F20"></path>
                    <path d="M376.55839,243.284466 C378.957715,242.868219 380.015959,242.900329 382.22353,243.436693 C382.791602,246.33377 382.120462,249.35691 382.589062,252.389564 C385.242462,252.959228 387.880281,252.525142 390.428216,252.815325 C391.120929,254.624214 391.160478,255.509036 390.6751,258.447737 C390.164554,258.533365 389.616856,258.678457 389.061967,258.708189 C387.669352,258.780735 386.264752,258.910366 384.879327,258.810466 C383.531055,258.712946 382.500376,259.124435 381.520032,260.205487 C381.451719,262.25461 381.377415,264.429796 381.301911,266.742939 C379.650428,267.113993 378.1116,267.012904 376.584756,266.874948 C375.79377,266.803592 375.230492,266.075755 375.202927,265.093413 C375.168172,263.792344 375.23169,262.486519 375.303598,261.18664 C375.357529,260.230462 375.379101,260.232841 374.61568,258.890148 C372.560313,258.658239 370.417459,259.082811 368.17753,258.601154 C367.93544,256.682851 367.948623,254.857312 368.170339,253.02107 C369.040424,252.552495 369.867364,252.646448 370.671534,252.635744 C371.903555,252.620284 373.137973,252.671423 374.366399,252.619095 C375.874067,252.554874 376.268362,252.170737 376.321094,250.707928 C376.390605,248.753947 376.3942,246.797588 376.438544,244.842417 C376.44933,244.36195 376.51165,243.882672 376.55839,243.284466" id="Fill-213" fill="#231F20"></path>
                    <path d="M531.421555,332.957846 L525.170616,332.957846 C523.957112,334.840294 523.957112,334.840294 524.41992,338.375355 C523.977762,338.858128 523.487016,339.395622 522.934319,340 L518.777554,340 C518.332967,339.471018 517.910245,338.967572 517.442578,338.411837 C517.357548,336.73247 517.271303,335.004461 517.17777,333.169439 C515.233006,332.622216 513.288242,333.23997 511.343478,332.764494 C510.816291,330.942849 511.019149,328.976494 510,327.319016 C510.915898,326.451971 511.911966,326.494533 512.901962,326.453187 C513.645369,326.422786 514.398495,326.365631 515.123681,326.208761 C515.760194,326.070131 516.363909,325.778278 517.023501,325.539932 C517.468087,322.785576 516.886237,320.023923 517.380628,317.399684 C519.531894,316.871918 520.897237,316.869486 523.024208,317.376579 C523.819849,319.829355 523.293876,322.437785 523.569617,325.006086 C524.276583,326.18444 525.373473,326.496965 526.715737,326.471428 C528.285153,326.441026 529.858213,326.565064 531.320734,326.617354 C532.160104,327.635189 531.889222,328.684641 531.937811,329.646538 C531.992473,330.703287 532.185613,331.815974 531.421555,332.957846" id="Fill-219" fill="#231F20"></path>
                    <path d="M653.218013,172.973522 C652.103334,172.338665 651.082458,172.578077 650.098129,172.545917 C649.432976,172.524477 648.760514,172.574503 648.097798,172.51733 C647.11956,172.432762 646.155941,171.745497 646.120612,170.935548 C646.043864,169.246567 645.795345,167.532572 646.361822,165.731627 C646.949008,165.644677 647.500866,165.524376 648.058814,165.488643 C648.973704,165.430279 649.893467,165.438617 650.809575,165.398119 C652.773359,165.308786 653.085226,164.941927 652.94513,162.992095 C652.846453,161.609226 652.716103,160.225167 652.710011,158.842299 C652.705139,157.44871 653.102281,157.052074 654.45086,157.011576 C655.692235,156.973461 656.938483,157.040163 658.022707,157.058029 C659.239717,158.046643 659.449253,159.191291 659.435852,160.46696 C659.417579,162.003481 659.513819,163.540001 659.562548,165.131312 C661.905202,165.793565 664.182071,165.238512 666.363919,165.606562 C667.867213,167.852978 667.867213,167.852978 668,170.97009 C667.597985,171.43462 667.128966,171.974188 666.544217,172.648352 L659.817158,172.648352 C659.239717,174.608904 659.861014,176.514666 659.366413,178.441867 C657.519578,179.100546 655.67518,179.192261 653.732105,178.631252 C653.037715,176.788619 653.646829,174.870946 653.218013,172.973522" id="Fill-221" fill="#231F20"></path>
                    <path d="M411.474481,165.572383 C413.084444,165.509272 414.581064,165.467595 416.074028,165.389005 C417.67546,165.305651 418.102021,164.804338 417.993553,163.220617 C417.886303,161.677382 417.721773,160.134148 417.697398,158.588531 C417.681554,157.523985 418.141021,157.08102 419.204986,157.032198 C420.529763,156.970278 421.859415,157.016718 422.95263,157.016718 C424.234751,157.949089 424.41025,159.033879 424.42975,160.218692 C424.455344,161.836945 424.384657,163.464724 424.684468,165.156805 C426.914773,165.824826 429.198703,165.203245 431.437539,165.628349 C432.825691,167.183491 433.138909,169.049424 432.950003,171.095163 C432.53563,171.552417 432.102975,172.029915 431.686164,172.488361 C429.39614,172.803914 427.130491,172.380001 424.801468,172.780099 C424.227438,174.605545 424.892874,176.517918 424.365157,178.412429 C422.519975,179.119745 420.673575,179.19 418.721144,178.61486 C418.069115,176.76917 418.630957,174.859179 418.271427,173.100415 C417.707148,172.505031 417.025869,172.531228 416.365308,172.521702 C415.279406,172.507413 414.191066,172.568142 413.110038,172.505031 C412.114323,172.447875 411.162482,171.752466 411.123482,170.936791 C411.043045,169.247092 410.759077,167.530005 411.474481,165.572383" id="Fill-223" fill="#231F20"></path>
                    <path d="M529.902057,225.717934 C531.296191,223.659792 533.247039,223.964746 535.290672,224.097795 C535.490337,224.362716 535.659466,224.779525 535.967185,224.956139 C536.740008,225.400029 536.781115,226.097066 536.781115,226.835313 C536.779941,227.55943 536.723565,228.28708 536.759974,229.008842 C536.790511,229.631701 536.920881,230.248673 537.023063,230.992807 C539.316865,231.016355 541.465029,231.037549 543.729469,231.058743 C544.255646,232.921432 543.839872,234.67462 543.907993,236.44547 C543.422924,236.961183 542.943727,237.473364 542.385839,238.069142 C540.592374,238.345837 538.642701,237.924319 536.72239,238.409418 C536.28665,239.757572 536.386482,241.048032 536.413496,242.312588 C536.435812,243.338127 536.001246,243.93155 535.129765,244.410763 C533.742679,245.174913 532.40727,245.207881 531.036626,244.439021 C530.693671,244.247101 530.342495,244.068132 529.96548,243.867969 C529.541485,242.062974 530.135783,240.177914 529.624875,238.377628 C527.748021,237.737108 525.441299,238.667275 524.002534,236.625617 C524.002534,235.558868 524.013104,234.440313 524.000185,233.32058 C523.983742,231.978313 525.066633,230.856225 526.470162,230.997516 C527.482583,231.099953 528.53846,231.13763 529.696519,230.843273 C530.052393,229.079488 529.734103,227.306283 529.902057,225.717934" id="Fill-245" fill="#231F20"></path>
                    <path d="M685.8732,234.682187 C686.091009,236.674347 687.262036,238.221946 686.946336,240.159134 C686.467891,240.665838 685.962526,241.202419 685.313995,241.890771 L678.947374,241.890771 C678.264581,243.826764 678.909441,245.74005 678.434667,247.692773 C676.589412,248.230549 674.698881,247.888763 672.778984,247.93537 C672.243028,247.017566 672.365392,246.104543 672.310328,245.238126 C672.25404,244.345419 672.298092,243.446736 672.298092,242.642462 C671.446435,241.535839 670.496887,241.153421 669.186364,241.33029 C667.867276,241.508353 666.526162,241.398408 665.202179,240.71125 C664.992936,238.793184 664.886479,236.879897 665.182601,234.859056 C667.169799,234.461102 669.110498,234.878177 670.992463,234.528025 C671.756017,233.520592 671.973826,232.443845 671.517407,231.28703 C671.233521,230.569996 671.251876,229.866107 671.336307,229.212411 C672.558728,228.234855 673.751781,227.816585 675.308256,228.074717 C676.952834,228.348385 677.888922,229.085735 678.145887,230.65843 C678.344117,231.865438 678.504415,233.078421 678.703869,234.449151 C679.210457,234.523245 679.754979,234.661871 680.300724,234.671432 C682.054207,234.701308 683.808912,234.682187 685.8732,234.682187" id="Fill-253" fill="#231F20"></path>
                    <path d="M436.996872,234.507062 C438.478441,232.78758 437.072227,230.962946 437.333537,229.306794 C439.235633,227.361474 441.254407,227.96371 443.222134,228.717702 C444.580947,230.468251 444.223621,232.534258 444.618625,234.520206 C446.978925,234.938426 449.311271,234.485554 451.691018,234.818935 C451.936528,235.694807 452.190546,236.534832 452.406886,237.383222 C452.624442,238.239975 452.807967,239.103898 453,239.939144 C452.347332,240.654898 451.805265,241.25116 451.300875,241.804405 C449.094931,242.057727 446.935171,241.672965 444.743811,242.063702 C444.261298,243.963616 444.809442,245.86831 444.334222,247.81363 C442.461296,248.066952 440.664939,248.040664 438.706935,247.862622 C438.592688,247.32969 438.400655,246.801538 438.381209,246.265021 C438.333809,244.964954 438.365409,243.661302 438.365409,242.413812 C437.66291,241.964524 437.11112,241.612024 436.588499,241.278643 C434.800651,241.352728 433.045618,241.641897 431.267492,240.731372 C430.894366,238.894788 430.96972,236.975756 431.143522,234.96591 C433.124619,234.355308 435.160408,234.993393 436.996872,234.507062" id="Fill-259" fill="#231F20"></path>
                </g>
            </g>
        </g>
    </g>
</svg>