<?xml version="1.0" encoding="UTF-8"?>
<svg width="38px" height="25px" viewBox="0 0 38 25" version="1.1" xmlns="http://www.w3.org/2000/svg" xmlns:xlink="http://www.w3.org/1999/xlink">
    <!-- Generator: Sketch 46.2 (44496) - http://www.bohemiancoding.com/sketch -->
    <title>Fill 1</title>
    <desc>Created with Sketch.</desc>
    <defs></defs>
    <g id="Symbols" stroke="none" stroke-width="1" fill="none" fill-rule="evenodd" opacity="0.8">
        <g id="Footer" transform="translate(-1278.000000, -307.000000)" fill="#626066">
            <g id="Group-6">
                <path d="M1288.86845,320.736464 L1288.4068,320.981154 C1288.18785,320.981154 1288.07706,320.861412 1288.07706,320.621928 C1288.07706,320.275718 1288.33558,320.101312 1288.85262,320.101312 L1289.0663,320.101312 C1289.05311,320.36162 1288.9898,320.57247 1288.86845,320.736464 L1288.86845,320.736464 Z M1296.17563,318.896085 L1296.36557,318.929925 L1296.48955,319.010621 L1296.56342,319.117347 L1296.59507,319.247501 L1296.6109,319.362037 L1296.60299,319.46616 L1296.60299,319.515618 L1295.58209,319.515618 C1295.66914,319.104332 1295.86435,318.896085 1296.17563,318.896085 L1296.17563,318.896085 Z M1304.29004,320.736464 L1303.82839,320.981154 C1303.6068,320.981154 1303.49865,320.861412 1303.49865,320.621928 C1303.49865,320.275718 1303.76244,320.101312 1304.29004,320.101312 L1304.48789,320.101312 C1304.47733,320.36162 1304.41138,320.57247 1304.29004,320.736464 L1304.29004,320.736464 Z M1309.54224,320.525614 L1309.00673,320.851 C1308.69809,320.851 1308.54509,320.621928 1308.54509,320.166389 C1308.54509,319.830591 1308.6084,319.554665 1308.74294,319.336006 L1309.2547,319.010621 C1309.58445,319.010621 1309.748,319.234486 1309.748,319.679613 C1309.748,320.025823 1309.67942,320.306955 1309.54224,320.525614 L1309.54224,320.525614 Z M1285.00909,320.036235 L1284.97216,317.383694 L1283.63999,317.383694 L1282.91454,321.647543 L1283.78771,321.647543 L1284.3496,318.39369 L1284.41555,321.647543 L1285.05922,321.647543 L1286.23048,318.375469 L1285.70288,321.647543 L1286.62353,321.647543 L1287.35161,317.383694 L1285.91656,317.383694 L1285.00909,320.036235 Z M1288.86845,318.11516 C1288.54925,318.11516 1288.17994,318.175031 1287.76314,318.294773 C1287.68664,318.77374 1287.64707,319.034048 1287.64707,319.075698 C1287.97681,318.968971 1288.30128,318.914307 1288.62048,318.914307 C1289.01617,318.914307 1289.21402,319.021033 1289.21402,319.239692 L1289.20611,319.28915 L1289.19028,319.362037 L1289.18237,319.450541 L1288.8025,319.434923 C1288.28282,319.434923 1287.88448,319.552062 1287.59958,319.783736 C1287.31204,320.018013 1287.16696,320.346002 1287.16696,320.767701 C1287.16696,321.051437 1287.24873,321.277905 1287.40965,321.452312 C1287.56793,321.626718 1287.77369,321.71262 1288.02694,321.71262 C1288.44373,321.71262 1288.76293,321.572053 1288.98452,321.29092 L1288.96869,321.647543 L1289.74162,321.647543 C1289.75217,321.517389 1289.84714,320.905664 1290.02124,319.809767 C1290.06609,319.419304 1290.08983,319.190233 1290.08983,319.125156 C1290.08983,318.453561 1289.68094,318.11516 1288.86845,318.11516 L1288.86845,318.11516 Z M1291.83617,318.11516 C1290.91024,318.11516 1290.45123,318.505623 1290.45123,319.28915 C1290.45123,319.71085 1290.68601,320.031029 1291.16085,320.247085 L1291.51434,320.452728 L1291.59084,320.637547 C1291.59084,320.845793 1291.41409,320.947314 1291.06324,320.947314 C1290.82055,320.947314 1290.54092,320.905664 1290.22173,320.81716 C1290.13995,321.327364 1290.10566,321.592878 1290.10566,321.616306 C1290.36682,321.681383 1290.68601,321.71262 1291.06324,321.71262 C1292.01555,321.723032 1292.4983,321.337776 1292.4983,320.556851 C1292.4983,320.111724 1292.27671,319.786339 1291.83617,319.580696 L1291.48268,319.401083 L1291.40882,319.205852 C1291.40882,319.021033 1291.55654,318.929925 1291.85463,318.929925 C1292.06303,318.929925 1292.28726,318.945544 1292.52995,318.979384 L1292.65922,318.180237 C1292.44026,318.138588 1292.16591,318.11516 1291.83617,318.11516 L1291.83617,318.11516 Z M1294.21034,317.659621 L1293.30552,317.659621 C1293.06283,319.028842 1292.92565,319.820179 1292.89136,320.036235 C1292.8043,320.515202 1292.7621,320.81716 1292.7621,320.947314 C1292.78056,321.457518 1293.03117,321.71262 1293.50337,321.71262 L1294.16286,321.598084 L1294.29476,320.835381 L1294.03096,320.866618 L1293.71704,320.60631 L1293.75925,320.312162 C1293.78563,320.150771 1293.8252,319.942524 1293.87268,319.687422 C1293.9228,319.43232 1293.95974,319.211058 1293.9782,319.028842 L1294.46095,319.028842 L1294.57438,318.180237 L1294.11274,318.180237 L1294.21034,317.659621 Z M1297.12267,318.458767 C1296.89844,318.229696 1296.59243,318.11516 1296.20729,318.11516 C1295.74301,318.11516 1295.36314,318.307788 1295.06241,318.693045 C1294.7564,319.078301 1294.60868,319.570283 1294.60868,320.166389 C1294.60868,321.197209 1295.131,321.71262 1296.17563,321.71262 C1296.47109,321.71262 1296.78501,321.67097 1297.11475,321.582466 L1297.26248,320.702624 C1296.95384,320.856206 1296.63464,320.931695 1296.30489,320.931695 C1296.03318,320.931695 1295.82215,320.871824 1295.67969,320.752082 C1295.53461,320.632341 1295.48185,320.455331 1295.51614,320.215848 L1297.34689,320.215848 C1297.42339,319.900875 1297.46033,319.619742 1297.46033,319.369846 C1297.46033,318.989796 1297.34953,318.685235 1297.12267,318.458767 L1297.12267,318.458767 Z M1299.28317,318.237505 L1298.86373,318.719075 L1298.91385,318.180237 L1298.07234,318.180237 C1297.99583,318.929925 1297.83228,320.010204 1297.59222,321.421075 L1297.54474,321.647543 L1298.46803,321.647543 C1298.64214,320.541233 1298.78195,319.84621 1298.87956,319.565077 C1298.9798,319.281341 1299.14599,319.151187 1299.39132,319.174615 C1299.48893,318.750312 1299.61027,318.414515 1299.75536,318.164619 L1299.28317,318.237505 Z M1301.83145,317.284777 C1301.2168,317.284777 1300.71295,317.526864 1300.32253,318.011037 C1299.92947,318.492607 1299.7369,319.114744 1299.7369,319.874844 C1299.7369,320.43711 1299.88199,320.88484 1300.1748,321.215431 C1300.46498,321.548626 1300.85804,321.71262 1301.35134,321.71262 C1301.59667,321.71262 1301.87102,321.67097 1302.17966,321.582466 L1302.34058,320.621928 C1302.04776,320.762495 1301.78396,320.835381 1301.55182,320.835381 C1301.27747,320.835381 1301.06644,320.74167 1300.91343,320.556851 C1300.76834,320.372032 1300.69184,320.11693 1300.69184,319.791545 C1300.69184,319.325594 1300.80264,318.94294 1301.02159,318.646189 C1301.24054,318.346835 1301.52544,318.198459 1301.86574,318.198459 C1302.1058,318.198459 1302.38278,318.273948 1302.68879,318.424927 L1302.83915,317.49823 C1302.45137,317.357663 1302.11635,317.284777 1301.83145,317.284777 L1301.83145,317.284777 Z M1304.30587,318.11516 C1303.98403,318.11516 1303.61999,318.175031 1303.20056,318.294773 C1303.11086,318.77374 1303.06866,319.034048 1303.06866,319.075698 C1303.3984,318.968971 1303.72287,318.914307 1304.04207,318.914307 C1304.43513,318.914307 1304.63561,319.021033 1304.63561,319.239692 L1304.60396,319.450541 L1304.22145,319.434923 C1303.70705,319.434923 1303.30871,319.552062 1303.02909,319.783736 C1302.74682,320.018013 1302.60701,320.346002 1302.60701,320.767701 C1302.60701,321.051437 1302.68087,321.277905 1302.83915,321.452312 C1302.99216,321.626718 1303.19528,321.71262 1303.44589,321.71262 C1303.87588,321.71262 1304.20035,321.572053 1304.42194,321.29092 L1304.40611,321.647543 L1305.16321,321.647543 C1305.20541,321.277905 1305.30038,320.666181 1305.44547,319.809767 C1305.48768,319.549459 1305.51142,319.320387 1305.51142,319.125156 C1305.51142,318.453561 1305.10781,318.11516 1304.30587,318.11516 L1304.30587,318.11516 Z M1307.38174,318.237505 L1306.94648,318.719075 C1306.98868,318.479592 1307.01243,318.299979 1307.01243,318.180237 L1306.15245,318.180237 C1306.04429,319.211058 1305.88337,320.291337 1305.67497,321.421075 L1305.62485,321.647543 L1306.55078,321.647543 C1306.7328,320.520408 1306.87525,319.820179 1306.96758,319.549459 C1307.05991,319.276135 1307.23665,319.151187 1307.4899,319.174615 C1307.5664,318.760725 1307.68247,318.424927 1307.83284,318.164619 L1307.38174,318.237505 Z M1309.96432,318.620158 C1309.71899,318.305185 1309.43145,318.149 1309.08851,318.149 C1308.68226,318.149 1308.32877,318.35985 1308.02541,318.784152 C1307.7194,319.205852 1307.57168,319.705643 1307.57168,320.280925 C1307.57168,320.715639 1307.67456,321.061849 1307.87768,321.322157 C1308.08081,321.582466 1308.35252,321.71262 1308.69281,321.71262 C1309.01201,321.71262 1309.29955,321.587672 1309.55016,321.337776 L1309.50267,321.647543 L1310.3732,321.647543 L1311.08546,317.383694 L1310.16217,317.383694 L1309.96432,318.620158 Z M1307.53211,327.166077 C1306.14981,327.957414 1304.64353,328.353082 1303.02117,328.353082 C1301.02687,328.353082 1299.22513,327.756976 1297.60805,326.562162 C1298.92704,325.359538 1299.83714,323.925239 1300.33044,322.267076 L1299.50739,322.267076 C1299.0009,323.763848 1298.16203,325.028946 1296.99868,326.059767 C1295.83533,325.028946 1294.9991,323.763848 1294.49261,322.267076 L1293.66428,322.267076 C1294.16286,323.925239 1295.07032,325.359538 1296.38931,326.562162 C1294.77223,327.756976 1292.9705,328.353082 1290.97883,328.353082 C1289.3512,328.353082 1287.84755,327.957414 1286.46789,327.166077 C1285.0856,326.372137 1283.99611,325.299667 1283.20208,323.943461 C1282.40541,322.587255 1282.00444,321.106102 1282.00444,319.5 C1282.00444,317.893898 1282.40541,316.412745 1283.20208,315.056539 C1283.99611,313.700333 1285.0856,312.62526 1286.46789,311.833923 C1287.84755,311.042586 1289.3512,310.646918 1290.97883,310.646918 C1292.9705,310.646918 1294.77223,311.243024 1296.38931,312.435235 C1294.99382,313.695127 1294.05207,315.236152 1293.56932,317.058309 L1294.395,317.058309 C1294.87511,315.431383 1295.74301,314.056955 1296.99868,312.940233 C1298.25436,314.056955 1299.12225,315.431383 1299.60236,317.058309 L1300.43068,317.058309 C1299.9453,315.236152 1299.00618,313.695127 1297.60805,312.435235 C1299.22513,311.243024 1301.02687,310.646918 1303.02117,310.646918 C1304.64353,310.646918 1306.14981,311.042586 1307.53211,311.833923 C1308.91177,312.62526 1309.99861,313.700333 1310.79528,315.056539 C1311.59459,316.412745 1311.99292,317.893898 1311.99292,319.5 C1311.99292,321.106102 1311.59459,322.587255 1310.79528,323.943461 C1309.99861,325.299667 1308.91177,326.372137 1307.53211,327.166077 L1307.53211,327.166077 Z M1315.3748,307.619534 C1314.95536,307.205643 1314.45942,307 1313.88698,307 L1280.11038,307 C1279.53794,307 1279.042,307.205643 1278.6252,307.619534 C1278.2084,308.03082 1278,308.5202 1278,309.082466 L1278,329.914931 C1278,330.4798 1278.2084,330.96918 1278.6252,331.380466 C1279.042,331.791753 1279.53794,332 1280.11038,332 L1313.88698,332 C1314.45942,332 1314.95536,331.791753 1315.3748,331.380466 C1315.7916,330.96918 1316,330.4798 1316,329.914931 L1316,309.082466 C1316,308.5202 1315.7916,308.03082 1315.3748,307.619534 L1315.3748,307.619534 Z" id="Fill-1"></path>
            </g>
        </g>
    </g>
</svg>