<?xml version="1.0" encoding="UTF-8"?>
<svg width="39px" height="25px" viewBox="0 0 39 25" version="1.1" xmlns="http://www.w3.org/2000/svg" xmlns:xlink="http://www.w3.org/1999/xlink">
    <!-- Generator: Sketch 46.2 (44496) - http://www.bohemiancoding.com/sketch -->
    <title>Fill 1</title>
    <desc>Created with Sketch.</desc>
    <defs></defs>
    <g id="Symbols" stroke="none" stroke-width="1" fill="none" fill-rule="evenodd" opacity="0.8">
        <g id="Footer" transform="translate(-1225.000000, -307.000000)" fill="#626066">
            <g id="Group-6">
                <g id="Page-1" transform="translate(1225.000000, 306.000000)">
                    <path d="M12.112,12.907012 C11.9066667,12.727612 11.648,12.639212 11.336,12.639212 C10.9253333,12.639212 10.5813333,12.777012 10.304,13.052612 C10.024,13.330812 9.88533333,13.668812 9.88533333,14.069212 C9.88533333,14.373412 9.984,14.612612 10.1786667,14.784212 C10.3733333,14.958412 10.632,15.044212 10.9493333,15.044212 C11.3653333,15.044212 11.712,14.911612 11.9946667,14.646412 C12.2773333,14.381212 12.4213333,14.048412 12.4213333,13.645412 C12.4213333,13.333412 12.3173333,13.086412 12.112,12.907012 L12.112,12.907012 Z M25.3093333,10.728212 L24.8906667,10.525412 C24.7466667,10.504612 24.552,10.494212 24.3093333,10.494212 L24.008,10.494212 L23.792,10.671012 L23.504,12.410412 L24.0426667,12.394812 C24.5306667,12.394812 24.896,12.314212 25.1413333,12.150412 C25.3866667,11.989212 25.5066667,11.679812 25.5066667,11.224812 L25.3093333,10.728212 Z M31.0533333,12.907012 C30.8453333,12.727612 30.5893333,12.639212 30.2773333,12.639212 C29.8666667,12.639212 29.52,12.777012 29.2426667,13.052612 C28.9653333,13.330812 28.8266667,13.668812 28.8266667,14.069212 C28.8266667,14.373412 28.9253333,14.612612 29.128,14.784212 C29.328,14.958412 29.5866667,15.044212 29.9093333,15.044212 C30.3093333,15.044212 30.6533333,14.909012 30.936,14.638612 C31.2186667,14.368212 31.36,14.038012 31.36,13.645412 C31.36,13.333412 31.2586667,13.086412 31.0533333,12.907012 L31.0533333,12.907012 Z M7.736,13.052612 C7.18933333,13.577812 6.44,13.843012 5.48533333,13.843012 L5.25066667,13.824812 L4.93333333,13.809212 L4.65066667,13.832612 L4.39733333,13.939212 L4.28266667,14.149812 L3.984,15.938612 L3.61333333,16.248012 L2.34933333,16.248012 L2.184,16.167412 L2.13333333,15.988012 L3.216,9.355412 L3.568,9.046012 L6.23466667,9.046012 C6.92266667,9.046012 7.48266667,9.189012 7.90933333,9.477612 C8.33866667,9.763612 8.552,10.226412 8.552,10.866012 C8.552,11.799412 8.28,12.527412 7.736,13.052612 L7.736,13.052612 Z M13.3386667,16.248012 L12.1866667,16.248012 L11.9706667,15.988012 L12.0373333,15.647412 C11.8346667,15.863212 11.5706667,16.037412 11.2373333,16.167412 C10.904,16.297412 10.5813333,16.362412 10.2693333,16.362412 C9.624,16.362412 9.112,16.172612 8.72533333,15.793012 C8.344,15.413412 8.152,14.903812 8.152,14.264212 C8.152,13.473812 8.432,12.784812 8.99466667,12.199812 C9.55466667,11.614812 10.2373333,11.321012 11.0373333,11.321012 C11.792,11.321012 12.32,11.539412 12.6213333,11.973612 C12.6533333,11.614812 12.7493333,11.435412 12.904,11.435412 L14.168,11.435412 L14.3386667,11.516012 L14.3866667,11.695412 L13.704,15.938612 L13.3386667,16.248012 Z M21.1226667,11.776012 L16.872,17.758612 L16.5733333,17.922412 L15.288,17.922412 L15.072,17.711812 C15.072,17.623412 15.528,16.973412 16.4373333,15.759212 C16.4266667,15.717612 16.296,15.338012 16.048,14.623012 C15.7973333,13.908012 15.5626667,13.239812 15.3466667,12.623612 C15.1306667,12.004812 15.0213333,11.685012 15.0213333,11.664212 L15.088,11.508212 L15.2373333,11.435412 L16.488,11.435412 L16.856,11.695412 L17.5893333,14.134212 L19.3573333,11.599212 L19.656,11.435412 L20.9413333,11.435412 L21.0906667,11.508212 L21.1573333,11.664212 L21.1226667,11.776012 Z M26.6746667,13.052612 C26.1306667,13.577812 25.3813333,13.843012 24.424,13.843012 L24.192,13.824812 L23.8746667,13.809212 L23.592,13.832612 L23.3413333,13.939212 L23.224,14.149812 L22.9253333,16.037412 L22.6586667,16.248012 L21.2906667,16.248012 L21.1226667,16.167412 L21.0746667,15.988012 L22.1573333,9.355412 L22.5253333,9.046012 L25.1733333,9.046012 C25.864,9.046012 26.424,9.189012 26.8506667,9.477612 C27.2773333,9.763612 27.4933333,10.226412 27.4933333,10.866012 C27.4933333,11.799412 27.2213333,12.527412 26.6746667,13.052612 L26.6746667,13.052612 Z M32.2773333,16.248012 L31.128,16.248012 L30.912,15.988012 L30.944,15.793012 L30.9786667,15.647412 C30.7893333,15.863212 30.528,16.037412 30.1946667,16.167412 C29.8613333,16.297412 29.5333333,16.362412 29.2106667,16.362412 C28.5653333,16.362412 28.0506667,16.172612 27.6666667,15.793012 C27.2826667,15.413412 27.0933333,14.903812 27.0933333,14.264212 C27.0933333,13.473812 27.3733333,12.784812 27.9333333,12.199812 C28.496,11.614812 29.1733333,11.321012 29.976,11.321012 C30.744,11.321012 31.272,11.539412 31.56,11.973612 C31.5946667,11.614812 31.688,11.435412 31.8453333,11.435412 L33.112,11.435412 L33.2773333,11.516012 L33.328,11.695412 L32.6453333,15.938612 L32.2773333,16.248012 Z M35.1946667,15.938612 L34.8453333,16.248012 L33.744,16.248012 L33.5786667,16.175212 L33.512,16.019212 L33.528,15.988012 L34.6133333,9.225412 L34.8293333,9.046012 L36.0586667,9.046012 L36.28,9.274812 L36.28,9.290412 L35.1946667,15.938612 Z M6.336,10.678812 C6.136,10.556612 5.81333333,10.494212 5.368,10.494212 L5.05066667,10.494212 L4.83466667,10.671012 L4.552,12.410412 L5.10133333,12.394812 C5.53333333,12.394812 5.86666667,12.335012 6.10133333,12.215412 C6.336,12.095812 6.48,11.848812 6.536,11.469212 C6.60266667,11.068812 6.536,10.803612 6.336,10.678812 L6.336,10.678812 Z M37.7786667,1.617812 C37.3573333,1.204412 36.856,0.999012 36.28,0.999012 L2.13333333,0.999012 C1.55466667,0.999012 1.056,1.204412 0.632,1.617812 C0.210666667,2.028612 0,2.517412 0,3.079012 L0,23.886812 C0,24.451012 0.210666667,24.939812 0.632,25.350612 C1.056,25.764012 1.55466667,25.969412 2.13333333,25.969412 L36.28,25.969412 C36.856,25.969412 37.3573333,25.764012 37.7786667,25.350612 C38.2026667,24.939812 38.4133333,24.451012 38.4133333,23.886812 L38.4133333,3.079012 C38.4133333,2.517412 38.2026667,2.028612 37.7786667,1.617812 L37.7786667,1.617812 Z" id="Fill-1"></path>
                </g>
            </g>
        </g>
    </g>
</svg>